# xmcd
#
# Track frame offsets: 
#        150
#        28881
#        61821
#        96622
#        131322
#        154969
#        192091
#
# Disc length: 3109 seconds
#
# Revision: 2
# Processed by: cddbd v1.5.1PL0 Copyright (c) Steve Scherf et al.
# Submitted via: ExactAudioCopy v0.95a5
#
DISCID=5c0c2307
DTITLE=Robert Balzar Trio - Alone [CD1)
DYEAR=2000
DGENRE=
TTITLE0=Alone (Robert Balzar)
TTITLE1=Vinohradska Street 32 (Robert Balzar)
TTITLE2=Someday My Prince Will Come (Frank Churchill)
TTITLE3=Moon River (Henry Mancini)
TTITLE4=Quiet Now (Denny Zeitlin)
TTITLE5=Una Noche Con Francis (Bud Powell)
TTITLE6=There Is No Greater Love (Isham Jones)
EXTD=
EXTT0=
EXTT1=
EXTT2=
EXTT3=
EXTT4=
EXTT5=
EXTT6=
PLAYORDER=
